# File created by Blade
# Date/Time:  Tue Jan 27 19:38:24 2015
#---------------------------------------------------------
:version 1.10
:name HOM
:units
  mass 1.0
  length 1.000000
  angle deg
:documentation
     Acclaim Skeleton File
:root
   axis xyz
   order TX TY TZ RX RY RZ
   position 0.000000 0.000000 0.000000
   orientation 0 0 0
:bonedata
   begin
      id 1
      name Spine_dum
      direction 0.000000 1.000000 0.000000
      length 6.116652
      axis 0.0 0.0 0.0 xyz
   end
   begin
      id 2
      name LeftUpLeg_dum
      direction 1.000000 0.000000 0.000000
      length 4.711765
      axis 0.0 0.0 0.0 xyz
   end
   begin
      id 3
      name RightUpLeg_dum
      direction -1.000000 0.000000 0.000000
      length 4.711765
      axis 0.0 0.0 0.0 xyz
   end
   begin
      id 4
      name Spine
      direction 0.000000 1.000000 0.000000
      length 0.000000
      axis 0.0 0.0 0.0 xyz
      dof rx ry rz
   end
   begin
      id 5
      name Spine_dum1
      direction 0.000000 1.000000 0.000000
      length 15.225563
      axis 0.0 0.0 0.0 xyz
   end
   begin
      id 6
      name Spine_dum2
      direction 0.000000 1.000000 0.000000
      length 8.977654
      axis 0.0 0.0 0.0 xyz
   end
   begin
      id 7
      name Spine_dum3
      direction 0.000000 1.000000 0.000000
      length 8.977654
      axis 0.0 0.0 0.0 xyz
   end
   begin
      id 8
      name Head
      direction 0.000000 1.000000 0.000000
      length 4.527550
      axis 0.0 0.0 0.0 xyz
      dof rx ry rz
   end
   begin
      id 9
      name LeftShoulder
      direction 1.000000 0.000000 0.000000
      length 7.110130
      axis 0.0 0.0 -90.0 xyz
      dof rx ry rz
   end
   begin
      id 10
      name LeftArm
      direction 1.000000 0.000000 0.000000
      length 10.398341
      axis 0.0 0.0 -90.0 xyz
      dof rx ry rz
   end
   begin
      id 11
      name LeftForeArm
      direction 1.000000 0.000000 0.000000
      length 8.888997
      axis 0.0 0.0 -90.0 xyz
      dof ry rz rx
   end
   begin
      id 12
      name LeftHand
      direction 0.000000 0.000000 0.000000
      length 0.000000
      axis 0.0 0.0 -90.0 xyz
      dof rx ry rz
   end
   begin
      id 13
      name LeftHand_dum1
      direction 0.000000 0.000000 0.000000
      length 0.000000
      axis 0.0 0.0 -90.0 xyz
   end
   begin
      id 14
      name LeftHand_dum2
      direction 1.000000 0.000000 0.000000
      length 3.937000
      axis 0.0 0.0 -90.0 xyz
   end
   begin
      id 15
      name LeftHandThumb1
      direction 0.000000 0.000000 1.000000
      length 3.937000
      axis 0.0 0.0 -90.0 xyz
      dof rx rz ry
   end
   begin
      id 16
      name RightShoulder
      direction -1.000000 0.000000 0.000000
      length 7.110130
      axis 0.0 0.0 90.0 xyz
      dof rx ry rz
   end
   begin
      id 17
      name RightArm
      direction -1.000000 0.000000 0.000000
      length 10.398341
      axis 0.0 0.0 90.0 xyz
      dof rx ry rz
   end
   begin
      id 18
      name RightForeArm
      direction -1.000000 0.000000 0.000000
      length 8.888997
      axis 0.0 0.0 90.0 xyz
      dof ry rz rx
   end
   begin
      id 19
      name RightHand
      direction 0.000000 0.000000 0.000000
      length 0.000000
      axis 0.0 0.0 90.0 xyz
      dof rx ry rz
   end
   begin
      id 20
      name RightHand_dum1
      direction 0.000000 0.000000 0.000000
      length 0.000000
      axis 0.0 0.0 90.0 xyz
   end
   begin
      id 21
      name RightHand_dum2
      direction -1.000000 0.000000 0.000000
      length 3.937000
      axis 0.0 0.0 90.0 xyz
   end
   begin
      id 22
      name RightHandThumb1
      direction 0.000000 0.000000 1.000000
      length 3.937000
      axis 0.0 0.0 90.0 xyz
      dof rx rz ry
   end
   begin
      id 23
      name LeftUpLeg
      direction 0.000000 -1.000000 0.000000
      length 15.510451
      axis 0.0 0.0 0.0 xyz
      dof rx ry rz
   end
   begin
      id 24
      name LeftLeg
      direction 0.000000 -1.000000 0.000000
      length 14.858061
      axis 0.0 0.0 0.0 xyz
      dof rx ry rz
   end
   begin
      id 25
      name LeftFoot
      direction 0.000000 -0.258819 0.965926
      length 5.128852
      axis 15.0 0.0 0.0 xyz
      dof rx ry rz
   end
   begin
      id 26
      name LeftToeBase
      direction 0.000000 0.000000 1.000000
      length 2.952750
      axis 0.0 0.0 0.0 xyz
      dof rx ry rz
   end
   begin
      id 27
      name RightUpLeg
      direction 0.000000 -1.000000 0.000000
      length 15.510451
      axis 0.0 0.0 0.0 xyz
      dof rx ry rz
   end
   begin
      id 28
      name RightLeg
      direction 0.000000 -1.000000 0.000000
      length 14.858061
      axis 0.0 0.0 0.0 xyz
      dof rx ry rz
   end
   begin
      id 29
      name RightFoot
      direction 0.000000 -0.258819 0.965926
      length 5.128852
      axis 15.0 0.0 0.0 xyz
      dof rx ry rz
   end
   begin
      id 30
      name RightToeBase
      direction 0.000000 0.000000 1.000000
      length 2.952750
      axis 0.0 0.0 0.0 xyz
      dof rx ry rz
   end
:hierarchy
   begin
      root Spine_dum LeftUpLeg_dum RightUpLeg_dum
      Spine_dum Spine
      LeftUpLeg_dum LeftUpLeg
      RightUpLeg_dum RightUpLeg
      Spine Spine_dum1 Spine_dum2 Spine_dum3
      Spine_dum1 Head
      Spine_dum2 LeftShoulder
      Spine_dum3 RightShoulder
      LeftShoulder LeftArm
      LeftArm LeftForeArm
      LeftForeArm LeftHand
      LeftHand LeftHand_dum1 LeftHand_dum2
      LeftHand_dum1 LeftHandThumb1
      RightShoulder RightArm
      RightArm RightForeArm
      RightForeArm RightHand
      RightHand RightHand_dum1 RightHand_dum2
      RightHand_dum1 RightHandThumb1
      LeftUpLeg LeftLeg
      LeftLeg LeftFoot
      LeftFoot LeftToeBase
      RightUpLeg RightLeg
      RightLeg RightFoot
      RightFoot RightToeBase
   end

# File created by Blade
# Date/Time:  Tue Jan 27 19:38:14 2015
# Frame Rate: 120.000 fps
#------------------------------------------------------
:FULLY-SPECIFIED
:DEGREES
145
root 4.310439 32.307169 1.871303 -3.603995 7.049670 1.336710
Spine 3.587461 12.876868 -0.824352
Head 4.580148 -15.585398 2.895611
LeftShoulder -5.553071 -7.166739 26.296537
LeftArm 0.653614 44.285689 -103.119757
LeftForeArm 7.354351 -0.000000 10.355046
LeftHand 10.156314 -0.000000 -4.927082
LeftHandThumb1 -26.253704 0.000000 33.147579
RightShoulder -5.310871 -0.840212 -23.423587
RightArm 55.902168 -56.970957 62.018744
RightForeArm -4.788071 0.000000 74.072352
RightHand 21.330475 0.000000 2.430623
RightHandThumb1 -24.326973 -0.000000 -32.862282
LeftUpLeg 6.564793 -5.762699 -3.700707
LeftLeg 3.038365 -0.000000 -0.000000
LeftFoot -14.704241 9.983988 -20.947965
LeftToeBase 17.281186 -0.000000 -0.000000
RightUpLeg 7.768205 -10.760389 2.256271
RightLeg 1.771447 -0.000000 -0.000000
RightFoot -13.939151 -16.497609 12.568126
RightToeBase 9.619703 -0.000000 -0.000000
146
root 4.306653 32.307471 1.864529 -3.596962 6.898885 1.322119
Spine 3.620038 12.941196 -0.813416
Head 4.538855 -15.531325 2.849920
LeftShoulder -5.462012 -7.228574 26.233059
LeftArm 0.683494 44.386230 -103.078553
LeftForeArm 7.183040 -0.000000 10.428232
LeftHand 10.395111 -0.000000 -5.769670
LeftHandThumb1 -26.253704 0.000000 33.147579
RightShoulder -5.316523 -0.854545 -23.421418
RightArm 56.645530 -57.052374 61.358391
RightForeArm -5.064334 -0.000000 74.358738
RightHand 21.242558 -0.000000 2.511568
RightHandThumb1 -24.326973 -0.000000 -32.862282
LeftUpLeg 6.574418 -5.711911 -3.685358
LeftLeg 3.007159 -0.000000 -0.000000
LeftFoot -14.735902 10.062874 -20.983581
LeftToeBase 17.262876 -0.000000 -0.000000
RightUpLeg 7.714106 -10.640948 2.287662
RightLeg 1.806986 -0.000000 -0.000000
RightFoot -13.973011 -16.454159 12.624783
RightToeBase 9.779354 -0.000000 -0.000000
147
root 4.301199 32.307912 1.857548 -3.597950 6.737600 1.304757
Spine 3.665989 12.999874 -0.808404
Head 4.486546 -15.462063 2.817811
LeftShoulder -5.389493 -7.333159 26.185575
LeftArm 0.634430 44.496747 -103.089973
LeftForeArm 7.101405 -0.000000 10.549881
LeftHand 10.263528 -0.000000 -5.999931
LeftHandThumb1 -26.253704 0.000000 33.147579
RightShoulder -5.285073 -0.846698 -23.419501
RightArm 57.406846 -57.094167 60.699429
RightForeArm -5.390363 -0.000000 74.607800
RightHand 21.277457 -0.000000 2.704102
RightHandThumb1 -24.326973 -0.000000 -32.862282
LeftUpLeg 6.592083 -5.648190 -3.665309
LeftLeg 2.990310 -0.000000 -0.000000
LeftFoot -14.707982 10.145713 -20.829692
LeftToeBase 17.091742 -0.000000 -0.000000
RightUpLeg 7.671048 -10.499045 2.325337
RightLeg 1.827011 -0.000000 -0.000000
RightFoot -13.954064 -16.442850 12.641943
RightToeBase 9.797766 -0.000000 -0.000000
148
root 4.294515 32.308610 1.850525 -3.607939 6.568547 1.285879
Spine 3.724525 13.066789 -0.803692
Head 4.436087 -15.383042 2.789653
LeftShoulder -5.318224 -7.465592 26.139481
LeftArm 0.572313 44.632539 -103.116566
LeftForeArm 7.050081 -0.000000 10.612583
LeftHand 10.292972 -0.000000 -6.042126
LeftHandThumb1 -26.253704 0.000000 33.147579
RightShoulder -5.223868 -0.751641 -23.447782
RightArm 58.137820 -57.154606 60.081809
RightForeArm -5.633370 0.000000 74.854988
RightHand 21.273315 -0.000000 2.834875
RightHandThumb1 -24.326973 -0.000000 -32.862282
LeftUpLeg 6.615192 -5.595966 -3.638727
LeftLeg 2.962959 -0.000000 -0.000000
LeftFoot -14.832964 10.203195 -21.051145
LeftToeBase 17.447381 -0.000000 -0.000000
RightUpLeg 7.637665 -10.464093 2.351932
RightLeg 1.841356 -0.000000 -0.000000
RightFoot -13.878146 -16.352622 12.556431
RightToeBase 9.765699 -0.000000 -0.000000
149
root 4.290055 32.308815 1.845339 -3.633637 6.401038 1.272090
Spine 3.802988 13.174282 -0.794861
Head 4.359259 -15.348684 2.780627
LeftShoulder -5.228887 -7.564046 26.098090
LeftArm 0.581419 44.799077 -103.111180
LeftForeArm 6.966111 -0.000000 10.656966
LeftHand 10.258382 0.000000 -6.175269
LeftHandThumb1 -26.253704 0.000000 33.147579
RightShoulder -5.197753 -0.658489 -23.492375
RightArm 59.046977 -57.222058 59.298657
RightForeArm -5.788658 -0.000000 75.108209
RightHand 21.205304 -0.000000 2.756558
RightHandThumb1 -24.326973 -0.000000 -32.862282
LeftUpLeg 6.645267 -5.520619 -3.622895
LeftLeg 2.967060 -0.000000 -0.000000
LeftFoot -14.894634 10.271236 -21.099850
LeftToeBase 17.430678 -0.000000 -0.000000
RightUpLeg 7.634187 -10.402091 2.371471
RightLeg 1.839041 -0.000000 -0.000000
RightFoot -13.811163 -16.286013 12.472524
RightToeBase 9.789624 -0.000000 -0.000000
150
root 4.287039 32.308964 1.839885 -3.653136 6.231810 1.256533
Spine 3.861301 13.283046 -0.772904
Head 4.325767 -15.322027 2.734924
LeftShoulder -5.125761 -7.664544 26.033386
LeftArm 0.574645 44.983567 -103.093207
LeftForeArm 6.943477 -0.000000 10.707311
LeftHand 10.314986 -0.000000 -6.082457
LeftHandThumb1 -26.253704 0.000000 33.147579
RightShoulder -5.117385 -0.502905 -23.581340
RightArm 59.862606 -57.258900 58.601508
RightForeArm -5.962256 0.000000 75.344510
RightHand 21.297855 -0.000000 2.830415
RightHandThumb1 -24.326973 -0.000000 -32.862282
LeftUpLeg 6.667513 -5.413065 -3.603982
LeftLeg 2.960686 -0.000000 -0.000000
LeftFoot -14.918416 10.334479 -21.109205
LeftToeBase 17.271380 -0.000000 -0.000000
RightUpLeg 7.613450 -10.319575 2.392562
RightLeg 1.856445 -0.000000 -0.000000
RightFoot -13.762629 -16.231671 12.416997
RightToeBase 9.756397 -0.000000 -0.000000
151
root 4.283654 32.308839 1.832064 -3.641770 6.051360 1.238029
Spine 3.876554 13.429343 -0.758507
Head 4.313216 -15.293221 2.701998
LeftShoulder -4.995738 -7.759362 25.976361
LeftArm 0.581407 45.171571 -103.076069
LeftForeArm 6.992803 0.000000 10.739144
LeftHand 10.277219 -0.000000 -5.729905
LeftHandThumb1 -26.253704 0.000000 33.147579
RightShoulder -5.027426 -0.338093 -23.657366
RightArm 60.778166 -57.286383 57.786325
RightForeArm -6.099464 -0.000000 75.578451
RightHand 21.331344 0.000000 2.662753
RightHandThumb1 -24.326973 -0.000000 -32.862282
LeftUpLeg 6.650208 -5.366114 -3.586475
LeftLeg 2.988191 -0.000000 -0.000000
LeftFoot -15.009104 10.404746 -21.175518
LeftToeBase 17.418061 -0.000000 -0.000000
RightUpLeg 7.554649 -10.215932 2.427108
RightLeg 1.874213 -0.000000 -0.000000
RightFoot -13.716023 -16.193743 12.370939
RightToeBase 9.724287 -0.000000 -0.000000
152
root 4.277252 32.308598 1.824382 -3.653200 5.835630 1.231222
Spine 3.922639 13.630636 -0.766369
Head 4.293241 -15.296488 2.699653
LeftShoulder -4.850088 -7.918722 25.941656
LeftArm 0.511644 45.335063 -103.103359
LeftForeArm 7.034588 0.000000 10.806790
LeftHand 10.220201 -0.000000 -5.791897
LeftHandThumb1 -26.253704 0.000000 33.147579
RightShoulder -4.916887 -0.131980 -23.739704
RightArm 61.679604 -57.267690 56.982107
RightForeArm -6.375313 -0.000000 75.833902
RightHand 21.352439 -0.000000 2.597350
RightHandThumb1 -24.326973 -0.000000 -32.862282
LeftUpLeg 6.652316 -5.200237 -3.563099
LeftLeg 3.006676 -0.000000 -0.000000
LeftFoot -15.042048 10.450764 -21.190696
LeftToeBase 17.366318 -0.000000 -0.000000
RightUpLeg 7.525147 -10.065274 2.450777
RightLeg 1.868096 -0.000000 -0.000000
RightFoot -13.607778 -16.161465 12.258873
RightToeBase 9.540641 -0.000000 -0.000000
153
root 4.268693 32.308560 1.815516 -3.655917 5.601937 1.212915
Spine 3.960192 13.872436 -0.771337
Head 4.255944 -15.318062 2.733664
LeftShoulder -4.691599 -8.118166 25.917412
LeftArm 0.416153 45.463870 -103.156192
LeftForeArm 6.976555 -0.000000 10.803652
LeftHand 10.309935 -0.000000 -5.977100
LeftHandThumb1 -26.253704 0.000000 33.147579
RightShoulder -4.747716 0.234830 -23.842198
RightArm 62.275510 -57.257093 56.396648
RightForeArm -6.783778 -0.000000 76.150004
RightHand 21.256563 -0.000000 2.832563
RightHandThumb1 -24.326973 -0.000000 -32.862282
LeftUpLeg 6.651891 -5.055757 -3.528855
LeftLeg 3.027568 -0.000000 -0.000000
LeftFoot -15.115188 10.488506 -21.245933
LeftToeBase 17.486959 -0.000000 -0.000000
RightUpLeg 7.473545 -9.845718 2.499018
RightLeg 1.894110 -0.000000 -0.000000
RightFoot -13.636644 -16.105240 12.349266
RightToeBase 9.768785 -0.000000 -0.000000
